<svg id="Layer_1" enable-background="new 0 0 512 512" viewBox="0 0 512 512" xmlns="http://www.w3.org/2000/svg"><g><circle cx="256" cy="256" fill="#fed056" r="256"/><circle cx="256" cy="256" fill="#feb635" r="208.6"/><path d="m464.6 256c0 115-93.6 208.6-208.6 208.6-37.5 0-72.6-9.9-103-27.3 28 14 59.6 21.9 93 21.9 115 0 208.6-93.6 208.6-208.6 0-77.5-42.6-145.3-105.6-181.2 68.5 34.2 115.6 104.9 115.6 186.6zm-194.4-198.8c41.1 0 79.4 12 111.6 32.5-35-26.4-78.6-42.2-125.8-42.2-115 0-208.6 93.5-208.6 208.6 0 74.2 39 139.6 97.6 176.4-50.6-38.1-83.4-98.6-83.4-166.7 0-115 93.6-208.6 208.6-208.6z" fill="#fc9924"/><path d="m275.9 170.4 15.4 47.3c1.9 5.8 7.4 9.8 13.5 9.8h49.7c13.7 0 19.5 17.6 8.3 25.7l-40.1 29.1c-5 3.6-7.1 10-5.1 15.9l15.4 47.3c4.3 13.1-10.8 24-21.8 15.9l-40.2-29.2c-5-3.6-11.7-3.6-16.7 0l-40.2 29.2c-11.2 8.1-26.1-2.8-21.8-15.9l15.4-47.3c1.9-5.8-.2-12.3-5.1-15.9l-40.6-29.2c-11.2-8.1-5.4-25.7 8.3-25.7h49.7c6.1 0 11.6-4 13.5-9.8l15.4-47.3c4.2-13 22.8-13 27 .1z" fill="#fc9924"/><path d="m263.2 157.7 15.4 47.3c1.9 5.8 7.4 9.8 13.5 9.8h49.7c13.7 0 19.5 17.6 8.3 25.7l-40.2 29.2c-5 3.6-7.1 10-5.1 15.9l15.4 47.3c4.3 13.1-10.8 24-21.8 15.9l-40.2-29.2c-5-3.6-11.7-3.6-16.7 0l-40.5 29.2c-11.2 8.1-26.1-2.8-21.8-15.9l15.4-47.3c1.9-5.8-.2-12.3-5.1-15.9l-40.2-29.2c-11.2-8.1-5.4-25.7 8.3-25.7h49.7c6.1 0 11.6-4 13.5-9.8l15.4-47.3c4.1-13.1 22.7-13.1 27 0z" fill="#fed056"/></g></svg>